<svg width="31" height="31" viewBox="0 0 31 31" fill="none" xmlns="http://www.w3.org/2000/svg">
<rect width="30.4668" height="30.4668" rx="15.2334" fill="#FFAA33"/>
<path d="M11 15.8047V14.6426C11 14.4668 11.0553 14.3236 11.166 14.2129C11.2832 14.0957 11.4264 14.0371 11.5957 14.0371H14.0371V11.6055C14.0371 11.4297 14.0924 11.2865 14.2031 11.1758C14.3203 11.0586 14.4668 11 14.6426 11H15.7949C15.9707 11 16.1139 11.0586 16.2246 11.1758C16.3418 11.2865 16.4004 11.4297 16.4004 11.6055V14.0371H18.959C19.1348 14.0371 19.278 14.0957 19.3887 14.2129C19.5059 14.3236 19.5645 14.4668 19.5645 14.6426V15.8047C19.5645 15.9805 19.5059 16.1237 19.3887 16.2344C19.278 16.3451 19.1348 16.4004 18.959 16.4004H16.4004V18.959C16.4004 19.1348 16.3418 19.2812 16.2246 19.3984C16.1139 19.5091 15.9707 19.5645 15.7949 19.5645H14.6426C14.4668 19.5645 14.3203 19.5091 14.2031 19.3984C14.0924 19.2812 14.0371 19.1348 14.0371 18.959V16.4004H11.5957C11.4199 16.4004 11.2767 16.3451 11.166 16.2344C11.0553 16.1237 11 15.9805 11 15.8047Z" fill="#FFEA82"/>
</svg>
