<svg width="15" height="24" viewBox="0 0 15 24" fill="none" xmlns="http://www.w3.org/2000/svg">
<path d="M0.491211 22.007V18.5405C0.491211 17.5462 1.08241 16.6392 2.2648 15.8196L7.62586 12.0105L2.2648 8.22144C1.08241 7.40182 0.491211 6.49488 0.491211 5.50059V2.03404C0.491211 1.5369 0.6726 1.19427 1.03538 1.00617C1.16974 0.938986 1.33098 0.905396 1.51908 0.905396C1.72063 0.905396 1.9692 1.00617 2.2648 1.20771L13.7326 9.32993C14.5254 9.90769 14.9285 10.64 14.9419 11.5268V12.5143C14.9419 13.4011 14.5388 14.1267 13.7326 14.691L2.2648 22.8334C1.9692 23.0215 1.72063 23.1155 1.51908 23.1155C1.31754 23.1155 1.15631 23.0819 1.03538 23.0148C0.6726 22.8401 0.491211 22.5042 0.491211 22.007Z" fill="#FFEA82"/>
</svg>
