<svg width="60" height="105" viewBox="0 0 60 105" fill="none" xmlns="http://www.w3.org/2000/svg">
<path d="M6.81039 0C9.85195 0.460814 11.6012 2.79048 13.6972 4.85391C14.1753 5.31984 14.6586 5.78065 15.1524 6.26195C21.2985 12.3549 26.8301 20.583 26.8301 29.4306C28.3902 29.4306 29.9504 29.4306 31.5579 29.4306C31.5316 28.9135 31.5106 28.3913 31.4843 27.8588C31.8626 17.0604 40.7981 8.47386 48.163 1.39268C49.3135 0.389132 49.9491 0.245767 51.5198 0.117764C52.0398 0.163845 52.5599 0.204806 53.0957 0.245767C54.3512 2.08902 54.346 3.4305 54.3407 5.56049C54.3407 5.95474 54.3407 6.34387 54.3407 6.74836C54.2567 10.7267 53.7629 14.6436 53.227 18.5862C53.101 19.5078 53.101 19.5078 52.9749 20.4499C51.9138 27.6847 50.301 33.5985 44.6907 38.6469C44.9481 39.0924 45.2108 39.5378 45.4787 39.9935C46.813 42.9479 46.3875 46.2452 46.2666 49.3992C46.6659 49.4658 47.0651 49.5324 47.4749 49.604C49.9491 50.1468 51.546 51.4678 53.2901 53.2086C54.6034 56.0196 54.5928 58.6565 54.1463 61.6876C53.5895 63.024 52.9644 64.135 52.1449 65.3229C51.4672 66.3777 51.131 67.1099 50.9945 68.3438C51.3989 69.3474 51.3989 69.3474 52.0083 70.3919C53.2165 73.1414 53.3163 75.6759 53.3216 78.62C53.3268 79.0501 53.3321 79.475 53.3374 79.9205C53.2953 82.9567 52.6597 85.4963 51.5198 88.3124C52.2184 88.507 52.2184 88.507 52.9276 88.6964C56.1898 89.8997 57.6712 91.748 59.4415 94.559C60.1664 96.7248 60.0088 98.8548 59.9248 101.113C59.5991 101.118 59.2786 101.118 58.9424 101.123C57.4716 101.138 56.0059 101.174 54.5403 101.21C54.0308 101.215 53.5212 101.215 52.9959 101.22C49.9543 101.246 49.9543 101.246 47.5537 102.9C47.3015 103.325 47.0494 103.75 46.792 104.185C44.8273 105.142 42.4844 104.84 40.3201 104.861C39.8211 104.876 39.322 104.886 38.8072 104.902C36.4748 104.927 35.1037 104.938 33.076 103.729C32.0832 102.649 32.0832 102.649 31.5579 101.625C30.066 101.415 30.066 101.415 28.406 101.625C27.203 102.838 27.203 102.838 26.3048 104.185C24.2718 105.178 21.8081 104.881 19.5702 104.922C19.0449 104.948 18.5249 104.968 17.9838 104.994C16.4919 105.014 15.1576 104.999 13.6972 104.697C12.8095 103.683 11.9322 102.659 11.0707 101.625C9.17955 101.164 7.3252 101.174 5.3868 101.179C4.61459 101.164 4.61458 101.164 3.83187 101.149C2.56586 101.123 1.29986 101.113 0.0391101 101.113C-0.155256 96.8477 0.296513 94.2262 3.19099 90.8725C5.01908 89.3774 6.54248 88.3124 8.96943 88.3124C8.71728 87.785 8.47038 87.2577 8.21298 86.7149C5.65471 80.796 6.68957 74.6877 8.96943 68.8558C9.30563 68.1697 9.64708 67.4836 10.0201 66.8078C9.79417 66.4954 9.57354 66.178 9.34765 65.8554C9.05873 65.4407 8.76981 65.026 8.47563 64.601C8.18671 64.1914 7.90304 63.7818 7.60887 63.3619C6.10122 61.0066 6.08021 58.7486 6.34286 56.0554C7.35147 53.3162 8.92215 51.7289 11.596 50.4233C11.7011 49.3327 11.7588 48.2319 11.7904 47.131C11.9795 43.7671 12.6939 41.1404 14.2226 38.1349C13.9126 38.0069 13.6027 37.8789 13.2875 37.7407C11.99 37.0443 11.223 36.307 10.2459 35.2267C9.94126 34.8939 9.64183 34.5662 9.32664 34.2282C7.4145 31.6118 6.65805 28.9135 6.15375 25.7749C6.10122 25.4369 6.04869 25.099 5.9909 24.7559C5.81755 23.691 5.6547 22.626 5.4866 21.561C5.37104 20.8493 5.25547 20.1427 5.1399 19.431C4.39395 14.7921 3.65326 10.1686 3.58497 5.4632C3.56396 4.63374 3.56396 4.63374 3.54295 3.78891C3.81086 1.45412 4.35718 0.399372 6.81039 0ZM7.39349 4.34189C7.31469 7.83384 7.59311 11.1619 8.08165 14.618C8.14994 15.1301 8.22348 15.6421 8.29703 16.1746C8.73304 19.2364 9.18481 22.2931 9.72063 25.3345C9.83094 25.9489 9.936 26.5634 10.0463 27.1931C10.8606 30.0297 12.2842 32.3747 14.4484 34.4586C14.7426 34.7454 15.0315 35.0321 15.3362 35.3291C16.4709 36.2046 17.5846 36.6449 18.9504 37.1109C18.7192 37.4795 18.4934 37.8482 18.257 38.222C15.4991 43.0349 15.0946 47.1157 16.3238 52.4713C15.8668 52.5891 15.4098 52.7069 14.9422 52.8246C12.82 53.6285 11.5592 54.4119 10.0201 56.0554C9.59455 58.9535 9.95702 60.725 11.596 63.2237C12.6046 64.4576 13.6552 65.6455 14.7479 66.8078C14.3434 67.3044 13.9441 67.8011 13.5291 68.3131C10.4561 72.5884 10.0043 77.0225 10.5454 82.1682C11.3176 85.1789 12.5416 87.7338 14.2226 90.3605C13.8759 90.4117 13.5344 90.4629 13.1824 90.5141C9.42645 91.1387 6.97849 91.9682 4.56731 95.0045C3.58497 96.4432 3.58497 96.4432 3.7163 98.0407C7.18336 98.0407 10.6504 98.0407 14.2226 98.0407C14.3959 98.8855 14.5693 99.7304 14.7479 100.601C16.0454 101.871 16.8334 101.773 18.6142 101.794C18.9714 101.789 19.3339 101.789 19.7016 101.789C20.0486 101.794 20.4005 101.803 20.7575 101.813C20.768 101.814 20.7785 101.814 20.789 101.814C22.3124 101.814 23.4103 101.794 24.7131 100.975C25.4327 99.971 25.4327 99.971 25.2541 98.0407C28.3745 98.0407 31.4948 98.0407 34.7098 98.0407C34.9672 99.3105 34.9672 99.3105 35.2351 100.601C36.5326 101.871 37.3206 101.773 39.1014 101.794C39.4586 101.789 39.8211 101.789 40.1888 101.789C40.5358 101.794 40.8878 101.803 41.2447 101.813C41.2552 101.814 41.2657 101.814 41.2762 101.814C42.7996 101.814 43.8975 101.794 45.2003 100.975C45.9199 99.971 45.9199 99.971 45.7413 98.0407C49.2084 98.0407 52.6755 98.0407 56.2476 98.0407C55.717 95.4755 55.0446 94.1187 53.0957 92.4085C50.5584 91.0363 48.6253 90.7035 45.7413 90.8725C45.9567 90.468 46.1721 90.0584 46.3927 89.6385C46.6764 89.0958 46.9601 88.5531 47.249 87.995C47.5126 87.4909 47.7808 86.9822 48.0538 86.4645C48.0692 86.4354 48.0846 86.4062 48.1 86.377C50.3483 81.7125 50.7476 77.3502 48.9878 72.4399C48.4309 71.037 47.9319 69.9925 46.9496 68.8251C46.2666 67.8318 46.2666 67.8318 46.3297 66.7924C46.8497 65.6506 47.4591 64.9082 48.3311 63.9917C50.0226 62.215 50.8999 60.8633 51.2203 58.4261C50.9419 56.163 50.1697 54.8829 48.3679 53.4954C46.4452 52.5277 44.7537 51.9593 42.5895 51.9593C42.6735 51.647 42.7628 51.3295 42.8521 51.0019C43.6348 46.2043 43.1095 42.0211 40.152 37.9915C39.9156 37.6997 39.6792 37.413 39.4376 37.1109C39.8893 36.9112 39.8893 36.9112 40.3569 36.7013C43.9237 34.8529 46.5818 32.1546 47.8426 28.4066C49.9281 20.8339 51.2309 12.1911 50.9945 4.34189C43.0202 10.7626 36.5378 18.1817 34.7098 28.4066C34.631 30.2908 34.6415 32.1597 34.7098 34.0388C34.3315 33.8749 33.9586 33.706 33.5751 33.537C32.0097 32.9892 30.8487 32.8816 29.194 32.8867C28.7107 32.8867 28.2274 32.8816 27.7283 32.8816C26.2102 33.025 25.0598 33.4244 23.6782 34.0388C23.6815 33.9911 23.6849 33.9434 23.6882 33.8956C23.7269 33.3434 23.766 32.7862 23.8095 32.216C23.7465 23.138 18.9294 15.1096 12.5678 8.83227C10.8973 7.25526 9.21107 5.75505 7.39349 4.34189Z" fill="#0B0706"/>
<path d="M7.39349 4.34189C7.31469 7.83384 7.59311 11.1619 8.08165 14.618C8.14994 15.1301 8.22348 15.6421 8.29703 16.1746C8.73304 19.2364 9.18481 22.2931 9.72063 25.3345C9.83094 25.9489 9.936 26.5634 10.0463 27.1931C10.8606 30.0297 12.2842 32.3747 14.4484 34.4586C14.7426 34.7454 15.0315 35.0321 15.3362 35.3291C16.4709 36.2046 17.5846 36.6449 18.9504 37.1109C18.7192 37.4795 18.4934 37.8482 18.257 38.222C15.4991 43.0349 15.0946 47.1157 16.3238 52.4713C15.8668 52.5891 15.4098 52.7069 14.9422 52.8246C12.82 53.6285 11.5592 54.4119 10.0201 56.0554C9.59455 58.9535 9.95702 60.725 11.596 63.2237C12.6046 64.4576 13.6552 65.6455 14.7479 66.8078C14.3434 67.3044 13.9441 67.8011 13.5291 68.3131C10.4561 72.5884 10.0043 77.0225 10.5454 82.1682C11.3176 85.1789 12.5416 87.7338 14.2226 90.3605C13.8759 90.4117 13.5344 90.4629 13.1824 90.5141C9.42645 91.1387 6.97849 91.9682 4.56731 95.0045C3.58497 96.4432 3.58497 96.4432 3.7163 98.0407H14.2226L14.7479 100.601C16.0454 101.871 16.8334 101.773 18.6142 101.794C18.9714 101.789 19.3339 101.789 19.7016 101.789C20.0486 101.794 20.4005 101.803 20.7575 101.813L20.789 101.814C22.3124 101.814 23.4103 101.794 24.7131 100.975C25.4327 99.971 25.4327 99.971 25.2541 98.0407H34.7098C34.9672 99.3105 34.9672 99.3105 35.2351 100.601C36.5326 101.871 37.3206 101.773 39.1014 101.794C39.4586 101.789 39.8211 101.789 40.1888 101.789C40.5358 101.794 40.8878 101.803 41.2447 101.813L41.2762 101.814C42.7996 101.814 43.8975 101.794 45.2003 100.975C45.9199 99.971 45.9199 99.971 45.7413 98.0407H56.2476C55.717 95.4755 55.0446 94.1187 53.0957 92.4085C50.5584 91.0363 48.6253 90.7035 45.7413 90.8725C45.9567 90.468 46.1721 90.0584 46.3927 89.6385C46.6764 89.0958 46.9601 88.5531 47.249 87.995C47.5126 87.4909 47.7808 86.9822 48.0538 86.4645L48.1 86.377C50.3483 81.7125 50.7476 77.3502 48.9878 72.4399C48.4309 71.037 47.9319 69.9925 46.9496 68.8251C46.2666 67.8318 46.2666 67.8318 46.3297 66.7924C46.8497 65.6506 47.4591 64.9082 48.3311 63.9917C50.0226 62.215 50.8999 60.8633 51.2203 58.4261C50.9419 56.163 50.1697 54.8829 48.3679 53.4954C46.4452 52.5277 44.7537 51.9593 42.5895 51.9593C42.6735 51.647 42.7628 51.3295 42.8521 51.0019C43.6348 46.2043 43.1095 42.0211 40.152 37.9915C39.9156 37.6997 39.6792 37.413 39.4376 37.1109C39.8893 36.9112 39.8893 36.9112 40.3569 36.7013C43.9237 34.8529 46.5818 32.1546 47.8426 28.4066C49.9281 20.8339 51.2309 12.1911 50.9945 4.34189C43.0202 10.7626 36.5378 18.1817 34.7098 28.4066C34.631 30.2908 34.6415 32.1597 34.7098 34.0388C34.3315 33.8749 33.9586 33.706 33.5751 33.537C32.0097 32.9892 30.8487 32.8816 29.194 32.8867C28.7107 32.8867 28.2274 32.8816 27.7283 32.8816C26.2102 33.025 25.0598 33.4244 23.6782 34.0388L23.6882 33.8956C23.7269 33.3434 23.766 32.7862 23.8095 32.216C23.7465 23.138 18.9294 15.1096 12.5678 8.83227C10.8973 7.25526 9.21107 5.75505 7.39349 4.34189Z" fill="white"/>
<path d="M35.758 69.3701C36.1047 69.5391 36.4514 69.708 36.8086 69.8821C37.4022 69.7848 38.0011 69.6927 38.6157 69.5954C40.4858 69.3701 40.4858 69.3701 42.0618 70.3941C42.4557 71.9609 42.5766 72.4934 42.0618 73.9782C40.6329 75.6781 39.0307 77.1425 37.3339 78.5864C34.7179 77.3883 32.6429 75.8266 31.0302 73.4662C30.8463 72.0172 30.8253 71.2287 31.6185 69.9794C33.0316 69.109 34.1243 69.237 35.758 69.3701Z" fill="#DB451E"/>
<path d="M35.758 46.3294C37.0713 46.4267 37.0713 46.4267 38.3846 46.8414C39.4352 48.3775 39.4352 48.3775 39.3039 50.1695C38.9099 51.9616 38.9099 51.9616 37.8593 53.4976C36.5775 53.303 36.5775 53.303 35.2327 52.9856C34.6128 51.7824 34.6181 50.999 34.6076 49.6575C34.6023 49.253 34.5918 48.8434 34.5866 48.4235C34.7074 47.3534 34.7074 47.3534 35.758 46.3294Z" fill="#0F0E11"/>
<path d="M20.5239 46.3294C22.2575 46.4984 22.9509 46.6468 24.2011 47.8654C24.2274 48.9356 24.2274 48.9356 24.0698 50.1695C24.0225 50.574 23.9752 50.9836 23.928 51.4035C23.6758 52.4736 23.6758 52.4736 22.6252 53.4976C21.086 53.3082 20.5975 53.0573 19.4733 51.9616C19.3315 50.8914 19.3315 50.8914 19.342 49.6575C19.3367 49.253 19.3367 48.8434 19.3315 48.4235C19.4733 47.3534 19.4733 47.3534 20.5239 46.3294Z" fill="#0F0E10"/>
<path d="M26.8277 56.0577C28.9079 56.0577 30.9882 56.0577 33.1315 56.0577C33.1315 58.7714 32.3225 59.2271 30.5049 61.1778C28.3669 60.4815 27.5999 59.35 26.3024 57.5937C26.4757 57.0868 26.6491 56.5799 26.8277 56.0577Z" fill="#141216"/>
</svg>
