<svg width="151" height="173" viewBox="0 0 151 173" fill="none" xmlns="http://www.w3.org/2000/svg">
<path d="M50.638 0C53.6026 0.568254 55.3076 3.44109 57.3505 5.98561C57.8165 6.56017 58.2875 7.12843 58.7688 7.72194C64.7594 15.2355 70.1509 25.382 70.1509 36.2925C71.6716 36.2925 73.1923 36.2925 74.759 36.2925C74.7334 35.6548 74.713 35.0107 74.6874 34.3541C75.056 21.038 83.7654 10.4496 90.9439 1.71739C92.0652 0.479859 92.6847 0.303069 94.2156 0.14522C94.7225 0.202046 95.2294 0.252557 95.7517 0.303069C96.9754 2.57608 96.9703 4.23033 96.9652 6.85693C96.9652 7.3431 96.9652 7.82296 96.9652 8.32176C96.8832 13.2277 96.4019 18.0578 95.8797 22.9196C95.7568 24.0561 95.7568 24.0561 95.6339 25.2178C94.5996 34.1394 93.0278 41.432 87.5594 47.6576C87.8103 48.2069 88.0663 48.7562 88.3275 49.3181C89.628 52.9613 89.2132 57.0274 89.0955 60.9168C89.4846 60.9989 89.8737 61.081 90.2731 61.1694C92.6847 61.8386 94.2412 63.4676 95.9411 65.6144C97.2212 69.0807 97.2109 72.3324 96.7757 76.0702C96.233 77.7182 95.6237 79.0883 94.8249 80.5531C94.1644 81.8538 93.8367 82.7567 93.7036 84.2784C94.0979 85.5159 94.0979 85.5159 94.6918 86.8039C95.8694 90.1945 95.9667 93.3199 95.9719 96.9504C95.977 97.4808 95.9821 98.0048 95.9872 98.5542C95.9463 102.298 95.3267 105.43 94.2156 108.903C94.8966 109.143 94.8966 109.143 95.5878 109.376C98.7675 110.86 100.211 113.139 101.937 116.606C102.643 119.276 102.49 121.903 102.408 124.688C102.09 124.694 101.778 124.694 101.45 124.7C100.017 124.719 98.5882 124.763 97.1597 124.807C96.6631 124.814 96.1664 124.814 95.6544 124.82C92.6898 124.852 92.6898 124.852 90.3499 126.891C90.1042 127.415 89.8584 127.939 89.6075 128.476C87.6926 129.657 85.409 129.284 83.2995 129.309C82.8131 129.328 82.3266 129.341 81.8249 129.36C79.5515 129.391 78.2152 129.404 76.2388 127.914C75.2711 126.582 75.2711 126.582 74.759 125.319C73.3049 125.06 73.3049 125.06 71.687 125.319C70.5144 126.815 70.5144 126.815 69.6389 128.476C67.6574 129.701 65.256 129.335 63.0749 129.385C62.5628 129.417 62.0559 129.442 61.5286 129.473C60.0744 129.499 58.7739 129.48 57.3505 129.107C56.4852 127.857 55.6302 126.594 54.7904 125.319C52.9472 124.751 51.1398 124.763 49.2504 124.77C48.4978 124.751 48.4978 124.751 47.7349 124.732C46.5009 124.7 45.267 124.688 44.0381 124.688C43.8487 119.428 44.289 116.195 47.1102 112.06C48.892 110.216 50.3769 108.903 52.7424 108.903C52.4966 108.252 52.256 107.602 52.0051 106.933C49.5116 99.6338 50.5202 92.1013 52.7424 84.9097C53.0701 84.0637 53.4029 83.2176 53.7664 82.3842C53.5462 81.999 53.3312 81.6076 53.111 81.2098C52.8294 80.6984 52.5478 80.1869 52.2611 79.6629C51.9795 79.1578 51.703 78.6526 51.4163 78.1349C49.9468 75.2305 49.9263 72.4461 50.1823 69.1249C51.1654 65.747 52.6963 63.7896 55.3025 62.1796C55.4049 60.8347 55.4612 59.4772 55.4919 58.1197C55.6762 53.9715 56.3726 50.7324 57.8625 47.0262C57.5604 46.8683 57.2584 46.7105 56.9511 46.54C55.6865 45.6813 54.9389 44.7721 53.9866 43.4398C53.6896 43.0294 53.3978 42.6254 53.0906 42.2086C51.2268 38.9822 50.4895 35.6548 49.998 31.7843C49.9468 31.3676 49.8956 30.9509 49.8393 30.5279C49.6703 29.2146 49.5116 27.9013 49.3477 26.588C49.2351 25.7103 49.1224 24.839 49.0098 23.9614C48.2827 18.2409 47.5608 12.5395 47.4942 6.73696C47.4737 5.71411 47.4737 5.71411 47.4533 4.67231C47.7144 1.79316 48.2469 0.492487 50.638 0ZM51.2063 5.35421C51.1295 9.66031 51.4009 13.7644 51.8771 18.0263C51.9436 18.6577 52.0153 19.2891 52.087 19.9457C52.512 23.7214 52.9523 27.4909 53.4746 31.2413C53.5821 31.999 53.6845 32.7567 53.792 33.5333C54.5856 37.0312 55.9732 39.923 58.0827 42.4928C58.3694 42.8463 58.651 43.1999 58.948 43.5661C60.054 44.6458 61.1394 45.1888 62.4707 45.7634C62.2454 46.218 62.0252 46.6726 61.7948 47.1335C59.1067 53.0686 58.7125 58.1008 59.9106 64.7052C59.4651 64.8504 59.0197 64.9956 58.564 65.1408C56.4955 66.1321 55.2666 67.0982 53.7664 69.1249C53.3517 72.6986 53.705 74.8832 55.3025 77.9644C56.2855 79.4861 57.3096 80.9509 58.3746 82.3842C57.9803 82.9966 57.5912 83.6091 57.1867 84.2405C54.1914 89.5126 53.7511 94.9805 54.2784 101.326C55.0311 105.039 56.2241 108.189 57.8625 111.428C57.5246 111.491 57.1918 111.555 56.8487 111.618C53.1878 112.388 50.8018 113.411 48.4517 117.155C47.4942 118.929 47.4942 118.929 47.6222 120.899C51.0015 120.899 54.3808 120.899 57.8625 120.899C58.0315 121.941 58.2005 122.983 58.3746 124.056C59.6392 125.622 60.4073 125.502 62.143 125.527C62.4912 125.521 62.8444 125.521 63.2029 125.521C63.5411 125.527 63.8841 125.539 64.232 125.551C64.2423 125.552 64.2525 125.552 64.2627 125.553C65.7476 125.553 66.8177 125.527 68.0875 124.517C68.7889 123.28 68.7889 123.28 68.6149 120.899C71.6562 120.899 74.6976 120.899 77.8311 120.899C78.082 122.465 78.082 122.465 78.3432 124.056C79.6078 125.622 80.3759 125.502 82.1116 125.527C82.4598 125.521 82.8131 125.521 83.1715 125.521C83.5097 125.527 83.8528 125.539 84.2007 125.551C84.2109 125.552 84.2211 125.552 84.2313 125.553C85.7162 125.553 86.7863 125.527 88.0561 124.517C88.7576 123.28 88.7576 123.28 88.5835 120.899C91.9628 120.899 95.3421 120.899 98.8238 120.899C98.3066 117.736 97.6513 116.063 95.7517 113.954C93.2786 112.262 91.3944 111.851 88.5835 112.06C88.7934 111.561 89.0033 111.056 89.2184 110.538C89.4949 109.869 89.7713 109.199 90.053 108.511C90.3099 107.89 90.5713 107.262 90.8374 106.624C90.8524 106.588 90.8674 106.552 90.8824 106.516C93.0738 100.764 93.463 95.3846 91.7477 89.3295C91.205 87.5995 90.7186 86.3114 89.7611 84.8719C89.0955 83.647 89.0955 83.647 89.1569 82.3652C89.6638 80.9572 90.2578 80.0417 91.1077 78.9115C92.7564 76.7206 93.6115 75.0537 93.9238 72.0483C93.6524 69.2575 92.8998 67.679 91.1435 65.968C89.2696 64.7746 87.6209 64.0738 85.5114 64.0738C85.5933 63.6886 85.6803 63.2972 85.7674 62.8931C86.5303 56.9769 86.0183 51.8184 83.1356 46.8494C82.9052 46.4895 82.6748 46.1359 82.4393 45.7634C82.8796 45.5171 82.8796 45.5171 83.3353 45.2583C86.8119 42.9789 89.4027 39.6515 90.6315 35.0297C92.6642 25.6914 93.934 15.0335 93.7036 5.35421C85.9312 13.2719 79.613 22.4208 77.8311 35.0297C77.7543 37.3532 77.7646 39.6578 77.8311 41.975C77.4625 41.773 77.099 41.5646 76.7252 41.3563C75.1994 40.6807 74.0678 40.5481 72.455 40.5544C71.9839 40.5544 71.5129 40.5481 71.0265 40.5481C69.5467 40.7249 68.4254 41.2173 67.0788 41.975C67.0821 41.9162 67.0853 41.8574 67.0886 41.7985C67.1263 41.1176 67.1644 40.4304 67.2068 39.7273C67.1454 28.5327 62.4502 18.6324 56.2497 10.8915C54.6215 8.94684 52.9779 7.09686 51.2063 5.35421Z" fill="#0B0706"/>
<path d="M51.2063 5.35421C51.1295 9.66031 51.4009 13.7644 51.8771 18.0263C51.9436 18.6577 52.0153 19.2891 52.087 19.9457C52.512 23.7214 52.9523 27.4909 53.4746 31.2413C53.5821 31.999 53.6845 32.7567 53.792 33.5333C54.5856 37.0312 55.9732 39.923 58.0827 42.4928C58.3694 42.8463 58.651 43.1999 58.948 43.5661C60.054 44.6458 61.1394 45.1888 62.4707 45.7634C62.2454 46.218 62.0252 46.6726 61.7948 47.1335C59.1067 53.0686 58.7125 58.1008 59.9106 64.7052C59.4651 64.8504 59.0197 64.9956 58.564 65.1408C56.4955 66.1321 55.2666 67.0982 53.7664 69.1249C53.3517 72.6986 53.705 74.8832 55.3025 77.9644C56.2855 79.4861 57.3096 80.9509 58.3746 82.3842C57.9803 82.9966 57.5912 83.6091 57.1867 84.2405C54.1914 89.5126 53.7511 94.9805 54.2784 101.326C55.0311 105.039 56.2241 108.189 57.8625 111.428C57.5246 111.491 57.1918 111.555 56.8487 111.618C53.1878 112.388 50.8018 113.411 48.4517 117.155C47.4942 118.929 47.4942 118.929 47.6222 120.899H57.8625L58.3746 124.056C59.6392 125.622 60.4073 125.502 62.143 125.527C62.4912 125.521 62.8444 125.521 63.2029 125.521C63.5411 125.527 63.8841 125.539 64.232 125.551L64.2627 125.553C65.7476 125.553 66.8177 125.527 68.0875 124.517C68.7889 123.28 68.7889 123.28 68.6149 120.899H77.8311C78.082 122.465 78.082 122.465 78.3432 124.056C79.6078 125.622 80.3759 125.502 82.1116 125.527C82.4598 125.521 82.8131 125.521 83.1715 125.521C83.5097 125.527 83.8528 125.539 84.2007 125.551L84.2313 125.553C85.7162 125.553 86.7863 125.527 88.0561 124.517C88.7576 123.28 88.7576 123.28 88.5835 120.899H98.8238C98.3066 117.736 97.6513 116.063 95.7517 113.954C93.2786 112.262 91.3944 111.851 88.5835 112.06C88.7934 111.561 89.0033 111.056 89.2184 110.538C89.4949 109.869 89.7713 109.199 90.053 108.511C90.3099 107.89 90.5713 107.262 90.8374 106.624L90.8824 106.516C93.0738 100.764 93.463 95.3846 91.7477 89.3295C91.205 87.5995 90.7186 86.3114 89.7611 84.8719C89.0955 83.647 89.0955 83.647 89.1569 82.3652C89.6638 80.9572 90.2578 80.0417 91.1077 78.9115C92.7564 76.7206 93.6115 75.0537 93.9238 72.0483C93.6524 69.2575 92.8998 67.679 91.1435 65.968C89.2696 64.7746 87.6209 64.0738 85.5114 64.0738C85.5933 63.6886 85.6803 63.2972 85.7674 62.8931C86.5303 56.9769 86.0183 51.8184 83.1356 46.8494C82.9052 46.4895 82.6748 46.1359 82.4393 45.7634C82.8796 45.5171 82.8796 45.5171 83.3353 45.2583C86.8119 42.9789 89.4027 39.6515 90.6315 35.0297C92.6642 25.6914 93.934 15.0335 93.7036 5.35421C85.9312 13.2719 79.613 22.4208 77.8311 35.0297C77.7543 37.3532 77.7646 39.6578 77.8311 41.975C77.4625 41.773 77.099 41.5646 76.7252 41.3563C75.1994 40.6807 74.0678 40.5481 72.455 40.5544C71.9839 40.5544 71.5129 40.5481 71.0265 40.5481C69.5467 40.7249 68.4254 41.2173 67.0788 41.975L67.0886 41.7985C67.1263 41.1176 67.1644 40.4304 67.2068 39.7273C67.1454 28.5327 62.4502 18.6324 56.2497 10.8915C54.6215 8.94684 52.9779 7.09686 51.2063 5.35421Z" fill="white"/>
<path d="M78.8528 85.5435C79.1908 85.7518 79.5287 85.9602 79.8769 86.1749C80.4555 86.0549 81.0391 85.9413 81.6382 85.8213C83.461 85.5435 83.461 85.5435 84.997 86.8063C85.381 88.7383 85.4988 89.395 84.997 91.226C83.6043 93.3222 82.0427 95.128 80.3889 96.9085C77.8391 95.4311 75.8166 93.5053 74.2447 90.5946C74.0655 88.8078 74.045 87.8354 74.8182 86.2948C76.1955 85.2215 77.2605 85.3793 78.8528 85.5435Z" fill="#DB451E"/>
<path d="M78.8529 57.1309C80.1329 57.2508 80.1329 57.2508 81.4129 57.7623C82.437 59.6564 82.437 59.6564 82.309 61.8663C81.9249 64.0762 81.9249 64.0762 80.9009 65.9704C79.6516 65.7304 79.6516 65.7304 78.3408 65.339C77.7367 63.8552 77.7418 62.8892 77.7315 61.2349C77.7264 60.7361 77.7162 60.231 77.7111 59.7133C77.8288 58.3936 77.8288 58.3936 78.8529 57.1309Z" fill="#0F0E11"/>
<path d="M64.0044 57.1309C65.694 57.3392 66.3699 57.5223 67.5885 59.025C67.6141 60.3447 67.6141 60.3447 67.4605 61.8663C67.4144 62.3651 67.3683 62.8702 67.3222 63.388C67.0765 64.7076 67.0765 64.7076 66.0524 65.9704C64.5522 65.7367 64.0761 65.4274 62.9803 64.0762C62.8421 62.7566 62.8421 62.7566 62.8523 61.2349C62.8472 60.7361 62.8472 60.231 62.8421 59.7133C62.9803 58.3936 62.9803 58.3936 64.0044 57.1309Z" fill="#0F0E10"/>
<path d="M70.1486 69.1274C72.1762 69.1274 74.2038 69.1274 76.2928 69.1274C76.2928 72.4738 75.5043 73.0358 73.7327 75.4414C71.6488 74.5827 70.9013 73.1873 69.6366 71.0216C69.8056 70.3965 69.9745 69.7715 70.1486 69.1274Z" fill="#141216"/>
<path d="M31.875 168.16C31.875 168.72 31.543 169 30.8789 169H26.1914C25.6966 169 25.1497 168.824 24.5508 168.473C23.9648 168.108 23.5156 167.672 23.2031 167.164L19.8828 161.969C18.5156 159.833 16.862 158.766 14.9219 158.766H10.1562V167.164C10.1562 167.672 9.97396 168.108 9.60938 168.473C9.25781 168.824 8.82812 169 8.32031 169H4.64844C4.14062 169 3.70443 168.824 3.33984 168.473C2.97526 168.108 2.79297 167.672 2.79297 167.164V142.848C2.79297 142.34 2.96875 141.904 3.32031 141.539C3.67188 141.174 4.10156 140.992 4.60938 140.992H20.7227C23.7044 140.992 26.1458 141.793 28.0469 143.395C29.9609 144.996 30.918 147.158 30.918 149.879C30.918 153.668 28.4635 156.044 23.5547 157.008C24.3359 157.294 25.0586 157.789 25.7227 158.492C26.3867 159.182 27.1484 160.191 28.0078 161.52L31.5625 167.164C31.7708 167.529 31.875 167.861 31.875 168.16ZM10.1562 153.238H18.4766C19.8177 153.238 20.9961 152.971 22.0117 152.438C23.0404 151.904 23.5547 151.051 23.5547 149.879C23.5547 148.707 23.0404 147.854 22.0117 147.32C20.9961 146.786 19.8177 146.52 18.4766 146.52H10.1562V153.238ZM35.918 167.594C34.1992 166.396 33.3398 164.703 33.3398 162.516C33.3398 160.328 34.1992 158.648 35.918 157.477C37.6497 156.305 39.8763 155.719 42.5977 155.719H49.0625C49.0625 154.195 48.7435 153.134 48.1055 152.535C47.4674 151.936 46.3477 151.637 44.7461 151.637C43.1576 151.637 42.0378 152.034 41.3867 152.828C40.7487 153.609 39.9609 154 39.0234 154H36.1133C35.7617 154 35.4688 153.889 35.2344 153.668C35.013 153.434 34.9023 153.147 34.9023 152.809C34.9023 149.072 38.4505 147.203 45.5469 147.203C48.6458 147.203 51.1328 147.9 53.0078 149.293C54.8828 150.673 55.8203 152.815 55.8203 155.719V167.809C55.8203 168.16 55.7096 168.447 55.4883 168.668C55.2669 168.889 54.9805 169 54.6289 169H50.8594C50.5078 169 50.2214 168.889 50 168.668C49.7786 168.434 49.668 168.147 49.668 167.809V167.203C47.6107 168.674 45.2344 169.404 42.5391 169.391C39.8568 169.391 37.6497 168.792 35.918 167.594ZM43.0664 160.152C42.1549 160.152 41.4323 160.374 40.8984 160.816C40.3776 161.259 40.1172 161.832 40.1172 162.535C40.1172 163.238 40.3906 163.818 40.9375 164.273C41.4844 164.729 42.2591 164.957 43.2617 164.957C45.2669 164.957 47.2005 164.371 49.0625 163.199V160.152H43.0664ZM60.6445 142.203C60.6445 141.852 60.7552 141.565 60.9766 141.344C61.2109 141.109 61.4974 140.992 61.8359 140.992H66.2109C66.5495 140.992 66.8294 141.109 67.0508 141.344C67.2852 141.565 67.4023 141.852 67.4023 142.203V148.199C69.5117 147.535 71.3932 147.203 73.0469 147.203C76.25 147.203 78.7956 148.16 80.6836 150.074C82.5716 151.975 83.5156 154.723 83.5156 158.316C83.5156 165.699 79.3815 169.391 71.1133 169.391C69.2253 169.391 67.2656 169.182 65.2344 168.766C63.2161 168.336 61.6862 167.815 60.6445 167.203V142.203ZM67.4023 152.711V164.234C68.5221 164.534 69.9479 164.684 71.6797 164.684C73.4115 164.684 74.6549 164.182 75.4102 163.18C76.1784 162.177 76.5625 160.556 76.5625 158.316C76.5625 156.077 76.1849 154.456 75.4297 153.453C74.6875 152.438 73.4245 151.93 71.6406 151.93C70.4948 151.93 69.082 152.19 67.4023 152.711ZM87.1289 143.512V142.848C87.1289 142.158 87.3242 141.611 87.7148 141.207C88.1185 140.803 88.6719 140.602 89.375 140.602H91.7969C92.487 140.602 93.0339 140.803 93.4375 141.207C93.8411 141.598 94.043 142.145 94.043 142.848V143.512C94.043 144.202 93.8411 144.749 93.4375 145.152C93.0469 145.556 92.5 145.758 91.7969 145.758H89.375C88.6849 145.758 88.138 145.556 87.7344 145.152C87.3307 144.749 87.1289 144.202 87.1289 143.512ZM87.207 167.809V149.273C87.207 148.922 87.3177 148.635 87.5391 148.414C87.7734 148.193 88.0599 148.082 88.3984 148.082H92.7734C93.125 148.082 93.4115 148.199 93.6328 148.434C93.8542 148.655 93.9648 148.935 93.9648 149.273V167.809C93.9648 168.16 93.8477 168.447 93.6133 168.668C93.3919 168.889 93.112 169 92.7734 169H88.3984C88.0469 169 87.7604 168.889 87.5391 168.668C87.3177 168.447 87.207 168.16 87.207 167.809ZM120.43 168.141C120.43 168.714 120.091 169 119.414 169H115.723C114.473 169 113.477 168.388 112.734 167.164L110.254 163.121C109.186 161.389 107.637 160.523 105.605 160.523V167.809C105.605 168.16 105.488 168.447 105.254 168.668C105.033 168.889 104.753 169 104.414 169H100.039C99.6875 169 99.401 168.889 99.1797 168.668C98.9583 168.447 98.8477 168.16 98.8477 167.809V142.203C98.8477 141.852 98.9583 141.565 99.1797 141.344C99.4141 141.109 99.7005 140.992 100.039 140.992H104.414C104.766 140.992 105.052 141.109 105.273 141.344C105.495 141.565 105.605 141.852 105.605 142.203V156.07C107.871 156.07 109.421 155.191 110.254 153.434L112.129 149.449C112.389 148.889 112.773 148.44 113.281 148.102C113.789 147.763 114.336 147.594 114.922 147.594H118.613C119.264 147.594 119.59 147.848 119.59 148.355C119.59 148.642 119.486 149.007 119.277 149.449L116.758 154.762C116.328 155.647 115.742 156.409 115 157.047C114.258 157.685 113.457 158.095 112.598 158.277C114.199 158.759 115.586 159.931 116.758 161.793L120.078 167.164C120.299 167.542 120.417 167.867 120.43 168.141ZM124.707 166.578C122.676 164.703 121.66 161.943 121.66 158.297C121.66 154.638 122.676 151.878 124.707 150.016C126.738 148.141 129.655 147.203 133.457 147.203C137.272 147.203 140.195 148.141 142.227 150.016C144.258 151.878 145.273 154.638 145.273 158.297C145.273 161.943 144.258 164.703 142.227 166.578C140.195 168.453 137.272 169.391 133.457 169.391C129.655 169.391 126.738 168.453 124.707 166.578ZM129.648 153.219C128.841 154.273 128.438 155.96 128.438 158.277C128.438 160.595 128.841 162.288 129.648 163.355C130.456 164.423 131.725 164.957 133.457 164.957C135.202 164.957 136.478 164.423 137.285 163.355C138.105 162.288 138.516 160.595 138.516 158.277C138.516 155.96 138.105 154.273 137.285 153.219C136.478 152.164 135.202 151.637 133.457 151.637C131.725 151.637 130.456 152.164 129.648 153.219Z" fill="black"/>
</svg>
