<svg width="234" height="105" viewBox="0 0 234 105" fill="none" xmlns="http://www.w3.org/2000/svg">
<path d="M114.875 70.1602C114.875 70.7201 114.543 71 113.879 71H109.191C108.697 71 108.15 70.8242 107.551 70.4727C106.965 70.1081 106.516 69.6719 106.203 69.1641L102.883 63.9688C101.516 61.8333 99.862 60.7656 97.9219 60.7656H93.1562V69.1641C93.1562 69.6719 92.974 70.1081 92.6094 70.4727C92.2578 70.8242 91.8281 71 91.3203 71H87.6484C87.1406 71 86.7044 70.8242 86.3398 70.4727C85.9753 70.1081 85.793 69.6719 85.793 69.1641V44.8477C85.793 44.3398 85.9688 43.9036 86.3203 43.5391C86.6719 43.1745 87.1016 42.9922 87.6094 42.9922H103.723C106.704 42.9922 109.146 43.793 111.047 45.3945C112.961 46.9961 113.918 49.1576 113.918 51.8789C113.918 55.668 111.464 58.0443 106.555 59.0078C107.336 59.2943 108.059 59.7891 108.723 60.4922C109.387 61.1823 110.148 62.1914 111.008 63.5195L114.562 69.1641C114.771 69.5286 114.875 69.8607 114.875 70.1602ZM93.1562 55.2383H101.477C102.818 55.2383 103.996 54.9714 105.012 54.4375C106.04 53.9036 106.555 53.0508 106.555 51.8789C106.555 50.707 106.04 49.8542 105.012 49.3203C103.996 48.7865 102.818 48.5195 101.477 48.5195H93.1562V55.2383ZM118.918 69.5938C117.199 68.3958 116.34 66.7031 116.34 64.5156C116.34 62.3281 117.199 60.6484 118.918 59.4766C120.65 58.3047 122.876 57.7188 125.598 57.7188H132.062C132.062 56.1953 131.743 55.1341 131.105 54.5352C130.467 53.9362 129.348 53.6367 127.746 53.6367C126.158 53.6367 125.038 54.0339 124.387 54.8281C123.749 55.6094 122.961 56 122.023 56H119.113C118.762 56 118.469 55.8893 118.234 55.668C118.013 55.4336 117.902 55.1471 117.902 54.8086C117.902 51.0716 121.451 49.2031 128.547 49.2031C131.646 49.2031 134.133 49.8997 136.008 51.293C137.883 52.6732 138.82 54.8151 138.82 57.7188V69.8086C138.82 70.1602 138.71 70.4466 138.488 70.668C138.267 70.8893 137.98 71 137.629 71H133.859C133.508 71 133.221 70.8893 133 70.668C132.779 70.4336 132.668 70.1471 132.668 69.8086V69.2031C130.611 70.6745 128.234 71.4036 125.539 71.3906C122.857 71.3906 120.65 70.7917 118.918 69.5938ZM126.066 62.1523C125.155 62.1523 124.432 62.3737 123.898 62.8164C123.378 63.2591 123.117 63.832 123.117 64.5352C123.117 65.2383 123.391 65.8177 123.938 66.2734C124.484 66.7292 125.259 66.957 126.262 66.957C128.267 66.957 130.201 66.3711 132.062 65.1992V62.1523H126.066ZM143.645 44.2031C143.645 43.8516 143.755 43.5651 143.977 43.3438C144.211 43.1094 144.497 42.9922 144.836 42.9922H149.211C149.549 42.9922 149.829 43.1094 150.051 43.3438C150.285 43.5651 150.402 43.8516 150.402 44.2031V50.1992C152.512 49.5352 154.393 49.2031 156.047 49.2031C159.25 49.2031 161.796 50.1602 163.684 52.0742C165.572 53.9753 166.516 56.7227 166.516 60.3164C166.516 67.6992 162.382 71.3906 154.113 71.3906C152.225 71.3906 150.266 71.1823 148.234 70.7656C146.216 70.3359 144.686 69.8151 143.645 69.2031V44.2031ZM150.402 54.7109V66.2344C151.522 66.5339 152.948 66.6836 154.68 66.6836C156.411 66.6836 157.655 66.1823 158.41 65.1797C159.178 64.1771 159.562 62.556 159.562 60.3164C159.562 58.0768 159.185 56.4557 158.43 55.4531C157.688 54.4375 156.424 53.9297 154.641 53.9297C153.495 53.9297 152.082 54.1901 150.402 54.7109ZM170.129 45.5117V44.8477C170.129 44.1576 170.324 43.6107 170.715 43.207C171.118 42.8034 171.672 42.6016 172.375 42.6016H174.797C175.487 42.6016 176.034 42.8034 176.438 43.207C176.841 43.5977 177.043 44.1445 177.043 44.8477V45.5117C177.043 46.2018 176.841 46.7487 176.438 47.1523C176.047 47.556 175.5 47.7578 174.797 47.7578H172.375C171.685 47.7578 171.138 47.556 170.734 47.1523C170.331 46.7487 170.129 46.2018 170.129 45.5117ZM170.207 69.8086V51.2734C170.207 50.9219 170.318 50.6354 170.539 50.4141C170.773 50.1927 171.06 50.082 171.398 50.082H175.773C176.125 50.082 176.411 50.1992 176.633 50.4336C176.854 50.6549 176.965 50.9349 176.965 51.2734V69.8086C176.965 70.1602 176.848 70.4466 176.613 70.668C176.392 70.8893 176.112 71 175.773 71H171.398C171.047 71 170.76 70.8893 170.539 70.668C170.318 70.4466 170.207 70.1602 170.207 69.8086ZM203.43 70.1406C203.43 70.7135 203.091 71 202.414 71H198.723C197.473 71 196.477 70.388 195.734 69.1641L193.254 65.1211C192.186 63.3893 190.637 62.5234 188.605 62.5234V69.8086C188.605 70.1602 188.488 70.4466 188.254 70.668C188.033 70.8893 187.753 71 187.414 71H183.039C182.688 71 182.401 70.8893 182.18 70.668C181.958 70.4466 181.848 70.1602 181.848 69.8086V44.2031C181.848 43.8516 181.958 43.5651 182.18 43.3438C182.414 43.1094 182.701 42.9922 183.039 42.9922H187.414C187.766 42.9922 188.052 43.1094 188.273 43.3438C188.495 43.5651 188.605 43.8516 188.605 44.2031V58.0703C190.871 58.0703 192.421 57.1914 193.254 55.4336L195.129 51.4492C195.389 50.8893 195.773 50.4401 196.281 50.1016C196.789 49.763 197.336 49.5938 197.922 49.5938H201.613C202.264 49.5938 202.59 49.8477 202.59 50.3555C202.59 50.6419 202.486 51.0065 202.277 51.4492L199.758 56.7617C199.328 57.6471 198.742 58.4089 198 59.0469C197.258 59.6849 196.457 60.0951 195.598 60.2773C197.199 60.7591 198.586 61.931 199.758 63.793L203.078 69.1641C203.299 69.5417 203.417 69.8672 203.43 70.1406ZM207.707 68.5781C205.676 66.7031 204.66 63.9427 204.66 60.2969C204.66 56.638 205.676 53.8776 207.707 52.0156C209.738 50.1406 212.655 49.2031 216.457 49.2031C220.272 49.2031 223.195 50.1406 225.227 52.0156C227.258 53.8776 228.273 56.638 228.273 60.2969C228.273 63.9427 227.258 66.7031 225.227 68.5781C223.195 70.4531 220.272 71.3906 216.457 71.3906C212.655 71.3906 209.738 70.4531 207.707 68.5781ZM212.648 55.2188C211.841 56.2734 211.438 57.9596 211.438 60.2773C211.438 62.5951 211.841 64.2878 212.648 65.3555C213.456 66.4232 214.725 66.957 216.457 66.957C218.202 66.957 219.478 66.4232 220.285 65.3555C221.105 64.2878 221.516 62.5951 221.516 60.2773C221.516 57.9596 221.105 56.2734 220.285 55.2188C219.478 54.1641 218.202 53.6367 216.457 53.6367C214.725 53.6367 213.456 54.1641 212.648 55.2188Z" fill="black"/>
<path d="M6.81039 0C9.85195 0.460814 11.6012 2.79048 13.6972 4.85391C14.1753 5.31984 14.6586 5.78065 15.1524 6.26195C21.2985 12.3549 26.8301 20.583 26.8301 29.4306C28.3902 29.4306 29.9504 29.4306 31.5579 29.4306C31.5316 28.9135 31.5106 28.3913 31.4843 27.8588C31.8626 17.0604 40.7981 8.47386 48.163 1.39268C49.3135 0.389132 49.9491 0.245767 51.5198 0.117764C52.0398 0.163845 52.5599 0.204806 53.0957 0.245767C54.3512 2.08902 54.346 3.4305 54.3407 5.56049C54.3407 5.95474 54.3407 6.34387 54.3407 6.74836C54.2567 10.7267 53.7629 14.6436 53.227 18.5862C53.101 19.5078 53.101 19.5078 52.9749 20.4499C51.9138 27.6847 50.301 33.5985 44.6907 38.6469C44.9481 39.0924 45.2108 39.5378 45.4787 39.9935C46.813 42.9479 46.3875 46.2452 46.2666 49.3992C46.6659 49.4658 47.0651 49.5324 47.4749 49.604C49.9491 50.1468 51.546 51.4678 53.2901 53.2086C54.6034 56.0196 54.5928 58.6565 54.1463 61.6876C53.5895 63.024 52.9644 64.135 52.1449 65.3229C51.4672 66.3777 51.131 67.1099 50.9945 68.3438C51.3989 69.3474 51.3989 69.3474 52.0083 70.3919C53.2165 73.1414 53.3163 75.6759 53.3216 78.62C53.3268 79.0501 53.3321 79.475 53.3374 79.9205C53.2953 82.9567 52.6597 85.4963 51.5198 88.3124C52.2184 88.507 52.2184 88.507 52.9276 88.6964C56.1898 89.8997 57.6712 91.748 59.4415 94.559C60.1664 96.7248 60.0088 98.8548 59.9248 101.113C59.5991 101.118 59.2786 101.118 58.9424 101.123C57.4716 101.138 56.0059 101.174 54.5403 101.21C54.0308 101.215 53.5212 101.215 52.9959 101.22C49.9543 101.246 49.9543 101.246 47.5537 102.9C47.3015 103.325 47.0494 103.75 46.792 104.185C44.8273 105.142 42.4844 104.84 40.3201 104.861C39.8211 104.876 39.322 104.886 38.8072 104.902C36.4748 104.927 35.1037 104.938 33.076 103.729C32.0832 102.649 32.0832 102.649 31.5579 101.625C30.066 101.415 30.066 101.415 28.406 101.625C27.203 102.838 27.203 102.838 26.3048 104.185C24.2718 105.178 21.8081 104.881 19.5702 104.922C19.0449 104.948 18.5249 104.968 17.9838 104.994C16.4919 105.014 15.1576 104.999 13.6972 104.697C12.8095 103.683 11.9322 102.659 11.0707 101.625C9.17955 101.164 7.3252 101.174 5.3868 101.179C4.61459 101.164 4.61458 101.164 3.83187 101.149C2.56586 101.123 1.29986 101.113 0.0391101 101.113C-0.155256 96.8477 0.296513 94.2262 3.19099 90.8725C5.01908 89.3774 6.54248 88.3124 8.96943 88.3124C8.71728 87.785 8.47038 87.2577 8.21298 86.7149C5.65471 80.796 6.68957 74.6877 8.96943 68.8558C9.30563 68.1697 9.64708 67.4836 10.0201 66.8078C9.79417 66.4954 9.57354 66.178 9.34765 65.8554C9.05873 65.4407 8.76981 65.026 8.47563 64.601C8.18671 64.1914 7.90304 63.7818 7.60887 63.3619C6.10122 61.0066 6.08021 58.7486 6.34286 56.0554C7.35147 53.3162 8.92215 51.7289 11.596 50.4233C11.7011 49.3327 11.7588 48.2319 11.7904 47.131C11.9795 43.7671 12.6939 41.1404 14.2226 38.1349C13.9126 38.0069 13.6027 37.8789 13.2875 37.7407C11.99 37.0443 11.223 36.307 10.2459 35.2267C9.94126 34.8939 9.64183 34.5662 9.32664 34.2282C7.4145 31.6118 6.65805 28.9135 6.15375 25.7749C6.10122 25.4369 6.04869 25.099 5.9909 24.7559C5.81755 23.691 5.6547 22.626 5.4866 21.561C5.37104 20.8493 5.25547 20.1427 5.1399 19.431C4.39395 14.7921 3.65326 10.1686 3.58497 5.4632C3.56396 4.63374 3.56396 4.63374 3.54295 3.78891C3.81086 1.45412 4.35718 0.399372 6.81039 0ZM7.39349 4.34189C7.31469 7.83384 7.59311 11.1619 8.08165 14.618C8.14994 15.1301 8.22348 15.6421 8.29703 16.1746C8.73304 19.2364 9.18481 22.2931 9.72063 25.3345C9.83094 25.9489 9.936 26.5634 10.0463 27.1931C10.8606 30.0297 12.2842 32.3747 14.4484 34.4586C14.7426 34.7454 15.0315 35.0321 15.3362 35.3291C16.4709 36.2046 17.5846 36.6449 18.9504 37.1109C18.7192 37.4795 18.4934 37.8482 18.257 38.222C15.4991 43.0349 15.0946 47.1157 16.3238 52.4713C15.8668 52.5891 15.4098 52.7069 14.9422 52.8246C12.82 53.6285 11.5592 54.4119 10.0201 56.0554C9.59455 58.9535 9.95702 60.725 11.596 63.2237C12.6046 64.4576 13.6552 65.6455 14.7479 66.8078C14.3434 67.3044 13.9441 67.8011 13.5291 68.3131C10.4561 72.5884 10.0043 77.0225 10.5454 82.1682C11.3176 85.1789 12.5416 87.7338 14.2226 90.3605C13.8759 90.4117 13.5344 90.4629 13.1824 90.5141C9.42645 91.1387 6.97849 91.9682 4.56731 95.0045C3.58497 96.4432 3.58497 96.4432 3.7163 98.0407C7.18336 98.0407 10.6504 98.0407 14.2226 98.0407C14.3959 98.8855 14.5693 99.7304 14.7479 100.601C16.0454 101.871 16.8334 101.773 18.6142 101.794C18.9714 101.789 19.3339 101.789 19.7016 101.789C20.0486 101.794 20.4005 101.803 20.7575 101.813C20.768 101.814 20.7785 101.814 20.789 101.814C22.3124 101.814 23.4103 101.794 24.7131 100.975C25.4327 99.971 25.4327 99.971 25.2541 98.0407C28.3745 98.0407 31.4948 98.0407 34.7098 98.0407C34.9672 99.3105 34.9672 99.3105 35.2351 100.601C36.5326 101.871 37.3206 101.773 39.1014 101.794C39.4586 101.789 39.8211 101.789 40.1888 101.789C40.5358 101.794 40.8878 101.803 41.2447 101.813C41.2552 101.814 41.2657 101.814 41.2762 101.814C42.7996 101.814 43.8975 101.794 45.2003 100.975C45.9199 99.971 45.9199 99.971 45.7413 98.0407C49.2084 98.0407 52.6755 98.0407 56.2476 98.0407C55.717 95.4755 55.0446 94.1187 53.0957 92.4085C50.5584 91.0363 48.6253 90.7035 45.7413 90.8725C45.9567 90.468 46.1721 90.0584 46.3927 89.6385C46.6764 89.0958 46.9601 88.5531 47.249 87.995C47.5126 87.4909 47.7808 86.9822 48.0538 86.4645C48.0692 86.4354 48.0846 86.4062 48.1 86.377C50.3483 81.7125 50.7476 77.3502 48.9878 72.4399C48.4309 71.037 47.9319 69.9925 46.9496 68.8251C46.2666 67.8318 46.2666 67.8318 46.3297 66.7924C46.8497 65.6506 47.4591 64.9082 48.3311 63.9917C50.0226 62.215 50.8999 60.8633 51.2203 58.4261C50.9419 56.163 50.1697 54.8829 48.3679 53.4954C46.4452 52.5277 44.7537 51.9593 42.5895 51.9593C42.6735 51.647 42.7628 51.3295 42.8521 51.0019C43.6348 46.2043 43.1095 42.0211 40.152 37.9915C39.9156 37.6997 39.6792 37.413 39.4376 37.1109C39.8893 36.9112 39.8893 36.9112 40.3569 36.7013C43.9237 34.8529 46.5818 32.1546 47.8426 28.4066C49.9281 20.8339 51.2309 12.1911 50.9945 4.34189C43.0202 10.7626 36.5378 18.1817 34.7098 28.4066C34.631 30.2908 34.6415 32.1597 34.7098 34.0388C34.3315 33.8749 33.9586 33.706 33.5751 33.537C32.0097 32.9892 30.8487 32.8816 29.194 32.8867C28.7107 32.8867 28.2274 32.8816 27.7283 32.8816C26.2102 33.025 25.0598 33.4244 23.6782 34.0388C23.6815 33.9911 23.6849 33.9434 23.6882 33.8956C23.7269 33.3434 23.766 32.7862 23.8095 32.216C23.7465 23.138 18.9294 15.1096 12.5678 8.83227C10.8973 7.25526 9.21107 5.75505 7.39349 4.34189Z" fill="#0B0706"/>
<path d="M7.39349 4.34189C7.31469 7.83384 7.59311 11.1619 8.08165 14.618C8.14994 15.1301 8.22348 15.6421 8.29703 16.1746C8.73304 19.2364 9.18481 22.2931 9.72063 25.3345C9.83094 25.9489 9.936 26.5634 10.0463 27.1931C10.8606 30.0297 12.2842 32.3747 14.4484 34.4586C14.7426 34.7454 15.0315 35.0321 15.3362 35.3291C16.4709 36.2046 17.5846 36.6449 18.9504 37.1109C18.7192 37.4795 18.4934 37.8482 18.257 38.222C15.4991 43.0349 15.0946 47.1157 16.3238 52.4713C15.8668 52.5891 15.4098 52.7069 14.9422 52.8246C12.82 53.6285 11.5592 54.4119 10.0201 56.0554C9.59455 58.9535 9.95702 60.725 11.596 63.2237C12.6046 64.4576 13.6552 65.6455 14.7479 66.8078C14.3434 67.3044 13.9441 67.8011 13.5291 68.3131C10.4561 72.5884 10.0043 77.0225 10.5454 82.1682C11.3176 85.1789 12.5416 87.7338 14.2226 90.3605C13.8759 90.4117 13.5344 90.4629 13.1824 90.5141C9.42645 91.1387 6.97849 91.9682 4.56731 95.0045C3.58497 96.4432 3.58497 96.4432 3.7163 98.0407H14.2226L14.7479 100.601C16.0454 101.871 16.8334 101.773 18.6142 101.794C18.9714 101.789 19.3339 101.789 19.7016 101.789C20.0486 101.794 20.4005 101.803 20.7575 101.813L20.789 101.814C22.3124 101.814 23.4103 101.794 24.7131 100.975C25.4327 99.971 25.4327 99.971 25.2541 98.0407H34.7098C34.9672 99.3105 34.9672 99.3105 35.2351 100.601C36.5326 101.871 37.3206 101.773 39.1014 101.794C39.4586 101.789 39.8211 101.789 40.1888 101.789C40.5358 101.794 40.8878 101.803 41.2447 101.813L41.2762 101.814C42.7996 101.814 43.8975 101.794 45.2003 100.975C45.9199 99.971 45.9199 99.971 45.7413 98.0407H56.2476C55.717 95.4755 55.0446 94.1187 53.0957 92.4085C50.5584 91.0363 48.6253 90.7035 45.7413 90.8725C45.9567 90.468 46.1721 90.0584 46.3927 89.6385C46.6764 89.0958 46.9601 88.5531 47.249 87.995C47.5126 87.4909 47.7808 86.9822 48.0538 86.4645L48.1 86.377C50.3483 81.7125 50.7476 77.3502 48.9878 72.4399C48.4309 71.037 47.9319 69.9925 46.9496 68.8251C46.2666 67.8318 46.2666 67.8318 46.3297 66.7924C46.8497 65.6506 47.4591 64.9082 48.3311 63.9917C50.0226 62.215 50.8999 60.8633 51.2203 58.4261C50.9419 56.163 50.1697 54.8829 48.3679 53.4954C46.4452 52.5277 44.7537 51.9593 42.5895 51.9593C42.6735 51.647 42.7628 51.3295 42.8521 51.0019C43.6348 46.2043 43.1095 42.0211 40.152 37.9915C39.9156 37.6997 39.6792 37.413 39.4376 37.1109C39.8893 36.9112 39.8893 36.9112 40.3569 36.7013C43.9237 34.8529 46.5818 32.1546 47.8426 28.4066C49.9281 20.8339 51.2309 12.1911 50.9945 4.34189C43.0202 10.7626 36.5378 18.1817 34.7098 28.4066C34.631 30.2908 34.6415 32.1597 34.7098 34.0388C34.3315 33.8749 33.9586 33.706 33.5751 33.537C32.0097 32.9892 30.8487 32.8816 29.194 32.8867C28.7107 32.8867 28.2274 32.8816 27.7283 32.8816C26.2102 33.025 25.0598 33.4244 23.6782 34.0388L23.6882 33.8956C23.7269 33.3434 23.766 32.7862 23.8095 32.216C23.7465 23.138 18.9294 15.1096 12.5678 8.83227C10.8973 7.25526 9.21107 5.75505 7.39349 4.34189Z" fill="white"/>
<path d="M35.758 69.3701C36.1047 69.5391 36.4514 69.708 36.8086 69.8821C37.4022 69.7848 38.0011 69.6927 38.6157 69.5954C40.4858 69.3701 40.4858 69.3701 42.0618 70.3941C42.4557 71.9609 42.5766 72.4934 42.0618 73.9782C40.6329 75.6781 39.0307 77.1425 37.3339 78.5864C34.7179 77.3883 32.6429 75.8266 31.0302 73.4662C30.8463 72.0172 30.8253 71.2287 31.6185 69.9794C33.0316 69.109 34.1243 69.237 35.758 69.3701Z" fill="#DB451E"/>
<path d="M35.758 46.3294C37.0713 46.4267 37.0713 46.4267 38.3846 46.8414C39.4352 48.3775 39.4352 48.3775 39.3039 50.1695C38.9099 51.9616 38.9099 51.9616 37.8593 53.4976C36.5775 53.303 36.5775 53.303 35.2327 52.9856C34.6128 51.7824 34.6181 50.999 34.6076 49.6575C34.6023 49.253 34.5918 48.8434 34.5866 48.4235C34.7074 47.3534 34.7074 47.3534 35.758 46.3294Z" fill="#0F0E11"/>
<path d="M20.5239 46.3294C22.2575 46.4984 22.9509 46.6468 24.2011 47.8654C24.2274 48.9356 24.2274 48.9356 24.0698 50.1695C24.0225 50.574 23.9752 50.9836 23.928 51.4035C23.6758 52.4736 23.6758 52.4736 22.6252 53.4976C21.086 53.3082 20.5975 53.0573 19.4733 51.9616C19.3315 50.8914 19.3315 50.8914 19.342 49.6575C19.3367 49.253 19.3367 48.8434 19.3315 48.4235C19.4733 47.3534 19.4733 47.3534 20.5239 46.3294Z" fill="#0F0E10"/>
<path d="M26.8277 56.0577C28.9079 56.0577 30.9882 56.0577 33.1315 56.0577C33.1315 58.7714 32.3225 59.2271 30.5049 61.1778C28.3669 60.4815 27.5999 59.35 26.3024 57.5937C26.4757 57.0868 26.6491 56.5799 26.8277 56.0577Z" fill="#141216"/>
</svg>
