<svg width="17" height="11" viewBox="0 0 17 11" fill="none" xmlns="http://www.w3.org/2000/svg">
<path d="M1.73997 0.67395H4.17187C4.86939 0.67395 5.50565 1.08869 6.08063 1.91818L8.75289 5.67914L11.411 1.91818C11.986 1.08869 12.6223 0.67395 13.3198 0.67395H15.7517C16.1004 0.67395 16.3408 0.801201 16.4728 1.0557C16.5199 1.14996 16.5435 1.26307 16.5435 1.39504C16.5435 1.53643 16.4728 1.71081 16.3314 1.91818L10.6334 9.96324C10.2281 10.5194 9.71434 10.8022 9.09223 10.8116H8.39942C7.7773 10.8116 7.2683 10.5288 6.87241 9.96324L1.16027 1.91818C1.02831 1.71081 0.962328 1.53643 0.962328 1.39504C0.962328 1.25365 0.985892 1.14054 1.03302 1.0557C1.15556 0.801201 1.39121 0.67395 1.73997 0.67395Z" fill="#FFDE3D"/>
</svg>
