<svg width="16" height="24" viewBox="0 0 16 24" fill="none" xmlns="http://www.w3.org/2000/svg">
<path d="M15.2503 22.007V18.5405C15.2503 17.5462 14.6591 16.6392 13.4767 15.8196L8.11565 12.0105L13.4767 8.22144C14.6591 7.40182 15.2503 6.49488 15.2503 5.50059V2.03404C15.2503 1.5369 15.0689 1.19427 14.7061 1.00617C14.5718 0.938986 14.4105 0.905396 14.2224 0.905396C14.0209 0.905396 13.7723 1.00617 13.4767 1.20771L2.00888 9.32993C1.21614 9.90769 0.81305 10.64 0.799614 11.5268V12.5143C0.799614 13.4011 1.2027 14.1267 2.00888 14.691L13.4767 22.8334C13.7723 23.0215 14.0209 23.1155 14.2224 23.1155C14.424 23.1155 14.5852 23.0819 14.7061 23.0148C15.0689 22.8401 15.2503 22.5042 15.2503 22.007Z" fill="#FFBF92"/>
</svg>
